<svg id="Layer_1" data-name="Layer 1" xmlns="http://www.w3.org/2000/svg" viewBox="0 0 725.6 588.04"><defs><style>.cls-1{fill:#fcd222;stroke-miterlimit:10;}.cls-1,.cls-4,.cls-5{stroke:#2e3192;stroke-width:10px;}.cls-2{fill:#fff;}.cls-3{fill:#2e3192;}.cls-4,.cls-5{fill:none;stroke-linejoin:round;}.cls-5{stroke-linecap:square;}</style></defs><title>projekt logo sailit</title><circle class="cls-1" cx="362.8" cy="248.4" r="243.4"/><polygon class="cls-2" points="720.6 272.24 514.51 493.56 513.48 492.6 362.8 315.62 362.8 315.3 513.19 297.2 720.44 272.26 720.6 272.24"/><polygon class="cls-2" points="720.4 271.92 720.44 272.26 513.19 297.2 491.66 271.92 720.4 271.92"/><polygon class="cls-3" points="362.8 315.62 513.48 492.6 514.51 493.56 513.48 494.67 212.13 494.67 211.1 493.56 212.13 492.6 362.8 315.62"/><polygon class="cls-2" points="491.66 271.92 513.19 297.2 362.8 315.3 362.8 120.56 491.66 271.92"/><polygon class="cls-2" points="362.8 315.3 362.8 315.62 212.13 492.6 211.1 493.56 5 272.24 5.16 272.26 212.42 297.2 362.8 315.3"/><polygon class="cls-2" points="362.8 120.56 362.8 315.3 212.42 297.2 233.95 271.92 362.8 120.56"/><polygon class="cls-2" points="233.95 271.92 212.42 297.2 5.16 272.26 5.2 271.92 233.95 271.92"/><line class="cls-4" x1="720.4" y1="271.92" x2="491.66" y2="271.92"/><line class="cls-4" x1="233.95" y1="271.92" x2="5.2" y2="271.92"/><polyline class="cls-4" points="513.19 297.2 720.44 272.26 720.6 272.24 514.51 493.56 513.48 494.67 212.13 494.67 211.1 493.56 5 272.24 5.16 272.26 212.42 297.2"/><line class="cls-4" x1="362.8" y1="315.62" x2="212.13" y2="492.6"/><line class="cls-4" x1="513.48" y1="492.6" x2="362.8" y2="315.62"/><polyline class="cls-5" points="362.8 120.56 491.66 271.92 513.19 297.2 362.8 315.3"/><polygon class="cls-5" points="362.8 120.56 362.8 315.3 212.42 297.2 233.95 271.92 362.8 120.56"/><line class="cls-4" x1="513.48" y1="297.55" x2="513.19" y2="297.21"/><polyline class="cls-4" points="362.8 317.17 362.8 315.62 362.8 315.3"/></svg>